<?xml version="1.0" encoding="UTF-8" standalone="no"?>
<svg
   inkscape:export-ydpi="96"
   inkscape:export-xdpi="96"
   inkscape:export-filename="C:\Project Stage\Art design\Logo\logo.png"
   id="svgLogoPS"
   width="180"
   height="55"
   version="1.1"
   viewBox="0 0 47.624858 14.551821"
   sodipodi:docname="logo.svg"
   inkscape:version="1.1 (c68e22c387, 2021-05-23)"
   xmlns:inkscape="http://www.inkscape.org/namespaces/inkscape"
   xmlns:sodipodi="http://sodipodi.sourceforge.net/DTD/sodipodi-0.dtd"
   xmlns="http://www.w3.org/2000/svg"
   xmlns:svg="http://www.w3.org/2000/svg"
   xmlns:rdf="http://www.w3.org/1999/02/22-rdf-syntax-ns#"
   xmlns:cc="http://creativecommons.org/ns#"
   xmlns:dc="http://purl.org/dc/elements/1.1/">
  <sodipodi:namedview
     inkscape:document-rotation="0"
     pagecolor="#ffffff"
     bordercolor="#666666"
     borderopacity="1"
     objecttolerance="10"
     gridtolerance="10"
     guidetolerance="10"
     inkscape:pageopacity="0"
     inkscape:pageshadow="2"
     inkscape:window-width="1920"
     inkscape:window-height="1009"
     id="namedview50"
     showgrid="false"
     inkscape:object-paths="true"
     inkscape:snap-intersection-paths="true"
     inkscape:snap-smooth-nodes="true"
     inkscape:zoom="2.8284272"
     inkscape:cx="103.23759"
     inkscape:cy="108.01056"
     inkscape:window-x="-8"
     inkscape:window-y="-8"
     inkscape:window-maximized="1"
     inkscape:current-layer="g893"
     inkscape:pagecheckerboard="0"
     showguides="false" />
  <defs
     id="defs2">
    <linearGradient
       id="linearGradient887"
       x1="120.51"
       x2="169.75999"
       y1="207.14"
       y2="207.14"
       gradientTransform="translate(-35.271,77.319)"
       gradientUnits="userSpaceOnUse">
      <stop
         id="stop1633"
         stop-color="#002d3b"
         offset="0" />
      <stop
         id="stop1639"
         stop-color="#005e7a"
         offset=".36804" />
      <stop
         id="stop1641"
         stop-color="#005e7a"
         offset=".64153" />
      <stop
         id="stop1635"
         stop-color="#008fba"
         offset="1" />
    </linearGradient>
  </defs>
  <metadata
     id="metadata5">
    <rdf:RDF>
      <cc:Work
         rdf:about="">
        <dc:format>image/svg+xml</dc:format>
        <dc:type
           rdf:resource="http://purl.org/dc/dcmitype/StillImage" />
      </cc:Work>
    </rdf:RDF>
  </metadata>
  <text
     id="text5384"
     x="64.391479"
     y="-28.45533"
     fill="#000000"
     font-family="sans-serif"
     font-size="10.583px"
     letter-spacing="0px"
     stroke-width="0.26458"
     word-spacing="0px"
     style="line-height:1.25"
     xml:space="preserve"><tspan
       id="tspan5382"
       x="64.391479"
       y="-18.799828"
       stroke-width="0.26458" /></text>
  <g
     id="g1053"
     transform="translate(-8.1737176,-75.810048)">
    <g
       id="g893"
       transform="translate(0.19316968)">
      <g
         id="g1464"
         transform="translate(0.12010894)">
        <text
           xml:space="preserve"
           style="font-style:normal;font-variant:normal;font-weight:bold;font-stretch:normal;font-size:8.2854px;line-height:1.25;font-family:'Century Gothic';-inkscape-font-specification:'Century Gothic, Bold';font-variant-ligatures:normal;font-variant-caps:normal;font-variant-numeric:normal;font-variant-east-asian:normal;fill:#000000;fill-opacity:1;stroke-width:0.264583"
           x="22.942789"
           y="85.331268"
           id="text4874"><tspan
             sodipodi:role="line"
             id="tspan4872"
             style="font-style:normal;font-variant:normal;font-weight:bold;font-stretch:normal;font-size:8.2854px;font-family:'Century Gothic';-inkscape-font-specification:'Century Gothic, Bold';font-variant-ligatures:normal;font-variant-caps:normal;font-variant-numeric:normal;font-variant-east-asian:normal;fill:#000000;fill-opacity:1;stroke-width:0.264583"
             x="22.942789"
             y="85.331268">flexblog</tspan></text>
        <path
           d="m 18.860253,78.361298 c -0.06873,-0.87745 -0.755913,-1.6199 -1.649343,-1.6874 -0.962088,-0.0675 -2.40532,-0.2025 -3.436133,-0.2025 -1.030815,0 -2.47402,0.135 -3.43614,0.26997 -0.8933913,0.0675 -1.5806263,0.74245 -1.6493433,1.6199 -0.06873,1.07993 -0.206175,3.1723 -0.206175,4.72473 0,1.4849 0.13745,3.57722 0.206175,4.72465 0.06873,0.87742 0.755952,1.6199 1.6493433,1.68737 0.96212,0.0675 2.405325,0.2025 3.43614,0.2025 1.030813,0 2.474045,-0.135 3.436133,-0.2025 0.89343,-0.0675 1.580618,-0.80995 1.649343,-1.68737 0.06873,-1.0799 0.206175,-3.17228 0.206175,-4.72465 0,-1.55243 -0.13745,-3.5773 -0.206175,-4.72473 z m -7.147156,2.83482 h 2.06168 c 0.2749,0 0.549803,0.2025 0.549803,0.53995 0,0.33745 -0.206175,0.54 -0.549803,0.54 h -2.06168 c -0.274895,0 -0.549783,-0.2025 -0.549783,-0.54 0,-0.33747 0.274888,-0.53995 0.549783,-0.53995 z m 4.123373,3.77975 h -4.123373 c -0.274895,0 -0.549783,-0.2025 -0.549783,-0.53995 0,-0.33747 0.206175,-0.53995 0.549783,-0.53995 h 4.123373 c 0.274902,0 0.549802,0.2025 0.549802,0.53995 0,0.33748 -0.2749,0.53995 -0.549802,0.53995 z"
           fill="#030d45"
           id="path2"
           style="fill:#6667ab;fill-opacity:1;stroke-width:0.264583" />
      </g>
    </g>
  </g>
</svg>
